<!-- Generated by IcoMoon.io -->
<svg version="1.1" xmlns="http://www.w3.org/2000/svg" fill="#ffffff" width="512" height="512" viewBox="0 0 512 512">
<title></title>
<g id="icomoon-ignore">
</g>
<path d="M32.016 256c0 123.712 100.288 223.984 223.984 223.984s223.984-100.288 223.984-223.984v0c0-123.712-100.288-223.984-223.984-223.984s-223.984 100.288-223.984 223.984v0zM511.984 256c0 141.376-114.608 255.984-255.984 255.984s-255.984-114.608-255.984-255.984v0c0-141.376 114.608-255.984 255.984-255.984s255.984 114.608 255.984 255.984v0zM368 240h-185.376l68.704-68.672c2.896-2.896 4.688-6.896 4.688-11.328 0-8.848-7.168-16.016-16.016-16.016-4.432 0-8.432 1.792-11.328 4.688l-96 96c-2.896 2.896-4.704 6.896-4.704 11.328s1.792 8.432 4.704 11.328l96 96c2.896 2.896 6.896 4.688 11.328 4.688 8.848 0 16.016-7.168 16.016-16.016 0-4.416-1.792-8.432-4.688-11.328l-68.704-68.672h185.376c8.832 0 16-7.168 16-16s-7.168-16-16-16z"></path>
</svg>
