<!-- Generated by IcoMoon.io -->
<svg version="1.1" xmlns="http://www.w3.org/2000/svg" width="512" height="512" viewBox="0 0 512 512">
<title></title>
<g id="icomoon-ignore">
</g>
<path fill="#000" d="M0 220.912h511.984v12.256h-511.984v-12.256z"></path>
<path fill="#000" d="M49.184 239.664h28.032v94.544h-28.032v-94.544z"></path>
<path fill="#000" d="M49.184 58.048h28.032v156.368h-28.032v-156.368z"></path>
<path fill="#000" d="M240.752 58.048h28.032v156.368h-28.032v-156.368z"></path>
<path fill="#000" d="M352.864 58.048h28.032v156.368h-28.032v-156.368z"></path>
<path fill="#000" d="M171.088 58.048h13.984v156.368h-13.984v-156.368z"></path>
<path fill="#000" d="M201.584 58.048h14.048v156.368h-14.048v-156.368z"></path>
<path fill="#000" d="M448.832 239.664h13.984v94.544h-13.984v-94.544z"></path>
<path fill="#000" d="M448.832 58.048h13.984v156.368h-13.984v-156.368z"></path>
<path fill="#000" d="M100.24 58.048h49.472v156.368h-49.472v-156.368z"></path>
<path fill="#000" d="M390.752 58.048h38.272v156.368h-38.336l0.080-156.368z"></path>
<path fill="#000" d="M284.848 58.048h46.112v156.368h-46.112v-156.368z"></path>
<path fill="#000" d="M384.336 251.552h-256.672c-8.144 0-14.8 6.656-14.8 14.8 0 0 8.816 58.224 16 100.672 1.344 8.080 6.576 14.8 14.8 14.8h41.408l23.696 62.864c1.936 5.088 7.92 9.264 13.376 9.264h67.712c5.456 0 11.44-4.192 13.376-9.264l23.696-62.864h41.408c8.144 0 13.456-6.72 14.8-14.8 7.168-42.448 16-100.672 16-100.672-0.080-8.144-6.656-14.8-14.8-14.8v0zM356.608 303.264h-201.2c-4.56 0-8.224-3.664-8.224-8.224s3.664-8.224 8.224-8.224h201.2c4.56 0 8.224 3.664 8.224 8.224-0.080 4.56-3.744 8.224-8.224 8.224v0z"></path>
</svg>
