<!-- Generated by IcoMoon.io -->
<svg version="1.1" xmlns="http://www.w3.org/2000/svg" width="512" height="512" viewBox="0 0 512 512">
<title></title>
<g id="icomoon-ignore">
</g>
<path fill="#000" d="M396.896 94.048l38.4 0.080 0.832-13.808c0.224-4.32 1.904-43.328-18.976-65.504-9.024-9.632-21.168-14.72-34.992-14.72v-0.080h-223.664c-23.984 0-43.488 17.76-43.488 39.616v106.944h-45.536c-32.336 0-58.672 26.336-58.672 58.672v248.096c0 32.336 26.256 58.592 58.592 58.672h373.104c32.336 0 58.672-26.336 58.672-58.672v-248.096c0-32.336-26.336-58.672-58.672-58.672h-45.616v-52.512zM396.896 35.984c5.84 7.216 8.496 19.056 9.488 28.768h-9.488v-28.768zM367.6 74.912v126.816h-223.28v-162.112c0-5.536 6.528-10.24 14.192-10.24h209.008l0.080 45.536zM396.896 201.728v-25.872h45.616c16.16 0 29.296 13.136 29.296 29.296v248.176c0 16.16-13.136 29.296-29.296 29.296h-373.104c-16.16 0-29.296-13.136-29.296-29.296v-248.096c0-16.16 13.136-29.296 29.296-29.296h45.536v25.872h-13.664v29.296h309.568v-29.296h-13.968zM233.264 100.496v-29.296h91.296v29.296h-91.296zM233.264 161.504v-29.296h91.296v29.296h-91.296zM180.896 100.496v-29.296h28.544v29.296h-28.544zM180.896 161.504v-29.296h28.544v29.296h-28.544zM386.128 430.944c14.576 0 26.416-11.84 26.416-26.416s-11.84-26.416-26.416-26.416c-14.576 0-26.416 11.84-26.416 26.416s11.84 26.416 26.416 26.416zM101.36 419.168v-29.296h154.592v29.296h-154.592z"></path>
</svg>
