<!-- Generated by IcoMoon.io -->
<svg version="1.1" xmlns="http://www.w3.org/2000/svg" width="512" height="512" viewBox="0 0 512 512">
<title></title>
<g id="icomoon-ignore">
</g>
<path fill="#000" d="M466.896 305.12c-26.864-46.528-10.704-106.144 36.080-133.248l-50.32-87.152c-14.368 8.432-31.088 13.264-48.928 13.264-53.776 0-97.36-43.872-97.36-98h-100.624c0.128 16.704-4.032 33.648-12.976 49.12-26.864 46.528-86.576 62.352-133.424 35.376l-50.304 87.152c14.48 8.24 27.024 20.288 35.936 35.744 26.816 46.448 10.752 105.968-35.856 133.104l50.32 87.152c14.32-8.352 30.96-13.12 48.704-13.12 53.6 0 97.072 43.6 97.344 97.472h100.624c-0.048-16.544 4.144-33.28 12.976-48.608 26.816-46.448 86.384-62.304 133.2-35.504l50.32-87.152c-14.384-8.24-26.848-20.256-35.712-35.616zM256 359.664c-57.248 0-103.664-46.416-103.664-103.664s46.416-103.664 103.664-103.664c57.248 0 103.664 46.416 103.664 103.664s-46.416 103.664-103.664 103.664z"></path>
</svg>
