<!-- Generated by IcoMoon.io -->
<svg version="1.1" xmlns="http://www.w3.org/2000/svg" width="1024" height="1024" viewBox="0 0 1024 1024">
<title></title>
<g id="icomoon-ignore">
</g>
<path fill="#000" d="M990.4 534.848l-115.488-120.672c-15.84-16.608-41.888-16.608-57.76 0.16l-367.84 383.68-42.976 225.984 216.384-44.96 367.68-383.84c15.84-16.608 15.84-43.872 0-60.352v0zM582.464 900.416l-72.064 14.944 14.336-75.424 321.216-335.392 57.76 60.352-321.216 335.52z"></path>
<path fill="#000" d="M307.744 938.656h-204.352v-853.312h286.016v213.312c0 47.072 36.576 85.344 81.664 85.344h286.016v-85.344l-286.016-298.656h-367.68c-45.088 0-81.664 38.24-81.664 85.344v853.312c0 47.072 36.576 85.344 81.664 85.344h204.352v-85.344zM471.104 120.704l170.496 177.984h-170.496v-177.984z"></path>
</svg>
