<!-- Generated by IcoMoon.io -->
<svg version="1.1" xmlns="http://www.w3.org/2000/svg" width="3355" height="1024" viewBox="0 0 3355 1024">
<title></title>
<g id="icomoon-ignore">
</g>
<path fill="#2e2e2d" d="M2828.148 595.403l71.983 116.543h-107.433l-59.413-99.98h-168.503v99.98h-97.709v-399.892h286.234c90.83 0 153.102 60.562 153.102 149.682 0 61.698-29.707 110.251-78.261 133.667zM2564.782 514.271h176.985c28.010 0 66.947 0 66.947-52.601 0-51.92-38.937-51.92-66.947-51.92h-176.985v104.521z"></path>
<path fill="#2e2e2d" d="M1967.135 409.736v-97.682h-394.776v399.905h394.776v-97.696h-297.067v-53.416h297.067v-97.696h-297.067v-53.416z"></path>
<path fill="#2e2e2d" d="M1518.956 614.25v97.709h-394.789v-399.905h97.709v302.196z"></path>
<path fill="#086736" d="M2116.603 560.848h297.067v-97.696h-209.483c-22.333 0-42.837 12.396-53.216 32.178l-34.368 65.518z"></path>
<path fill="#2e2e2d" d="M2018.908 312.054v399.905h97.696v-302.223h297.067v-97.682z"></path>
<path fill="#086736" d="M3084.142 560.848h270.446v-97.696h-270.446z"></path>
<path fill="#2e2e2d" d="M2959.812 312.054v399.905h394.776v-97.696h-297.067v-204.528h297.067v-97.682z"></path>
<path fill="#086736" d="M691.109 425.498l-106.191 54.979-31.483-16.269c-13.464-6.959-28.585-10.619-43.732-10.619-15.187 0-30.308 3.66-43.772 10.659l-31.416 16.229-106.258-55.006 162.225-83.964c6.011-3.112 12.623-4.648 19.221-4.648 6.585 0 13.184 1.536 19.194 4.648h0.027l162.185 83.991z"></path>
<path fill="#086736" d="M856.272 344.045l-72.958 37.761c-20.851 10.779-45.642 10.779-66.466 0l-163.4-84.325c-2.525-1.296-5.076-2.498-7.694-3.566-11.394-4.648-23.709-7.079-36.038-7.079-12.356 0-24.644 2.431-36.038 7.079-2.618 1.082-5.209 2.244-7.694 3.566h-0.027l-162.492 84.111c-20.851 10.779-45.615 10.779-66.466 0l-72.998-37.788 326.48-169.024c6.011-3.112 12.623-4.675 19.221-4.675 6.585 0 13.184 1.576 19.194 4.675h0.027l327.348 169.264z"></path>
<path fill="#086736" d="M1019.285 258.625l-72.918 37.708c-20.824 10.779-45.615 10.779-66.439 0l-153.222-79.302c-0.828-0.427-1.696-0.868-2.525-1.269-0.12-0.067-0.24-0.12-0.374-0.187l-170.373-88.185c-2.525-1.322-5.076-2.498-7.694-3.566-11.394-4.648-23.709-7.079-36.038-7.079-12.356 0-24.644 2.431-36.038 7.079-2.618 1.042-5.209 2.244-7.694 3.566h-0.027l-170.346 88.172c-0.12 0.053-0.24 0.12-0.374 0.187-0.828 0.401-1.696 0.828-2.525 1.269l-153.222 79.302c-20.824 10.779-45.615 10.779-66.439 0l-73.038-37.761 318.773-164.99c0.24-0.12 0.494-0.24 0.735-0.374l170.974-88.519c6.011-3.139 12.623-4.675 19.221-4.675 6.585 0 13.184 1.536 19.194 4.675l490.388 253.95z"></path>
<path fill="#2e2e2d" d="M319.24 593.346l171.709 88.88c6.011 3.139 12.623 4.675 19.221 4.675 6.585 0 13.21-1.536 19.221-4.675l490.468-253.87-6.318-3.259-66.707-34.502c-20.824-10.779-45.615-10.779-66.439 0l-153.209 79.316c-0.828 0.427-1.696 0.868-2.525 1.269-0.12 0.067-0.24 0.12-0.374 0.187l-170.386 88.172c-2.525 1.322-5.076 2.498-7.694 3.566-11.394 4.648-23.709 7.079-36.038 7.079-12.315 0-24.644-2.431-36.038-7.079-2.618-1.082-5.169-2.244-7.694-3.566l-170.386-88.185c-0.12-0.067-0.24-0.12-0.374-0.187-0.828-0.401-1.696-0.828-2.525-1.269l-153.222-79.302c-20.824-10.779-45.615-10.779-66.439 0l-73.025 37.761 318.773 164.99z"></path>
<path fill="#2e2e2d" d="M946.848 559.138c-20.824-10.779-45.615-10.779-66.439 0l-153.222 79.302c-0.828 0.427-1.696 0.868-2.525 1.269-0.12 0.067-0.24 0.12-0.374 0.187l-170.386 88.185c-2.525 1.322-5.076 2.498-7.694 3.566-11.394 4.648-23.709 7.079-36.038 7.079-12.315 0-24.644-2.431-36.038-7.079-2.618-1.082-5.169-2.244-7.694-3.566l-170.386-88.185c-0.12-0.067-0.24-0.12-0.374-0.187-0.828-0.401-1.696-0.828-2.525-1.269l-153.222-79.302c-20.824-10.779-45.615-10.779-66.439 0l-73.025 37.761 490.481 253.87c6.011 3.139 12.623 4.675 19.221 4.675 6.585 0 13.21-1.536 19.221-4.675l490.468-253.87-6.318-3.259-66.693-34.502z"></path>
<path fill="#2e2e2d" d="M946.848 727.681c-20.824-10.779-45.615-10.779-66.439 0l-153.222 79.302c-0.828 0.427-1.696 0.868-2.525 1.269-0.12 0.067-0.24 0.12-0.374 0.187l-170.386 88.185c-2.525 1.322-5.076 2.498-7.694 3.566-11.394 4.648-23.709 7.079-36.038 7.079-12.315 0-24.644-2.431-36.038-7.079-2.618-1.082-5.169-2.244-7.694-3.566l-170.386-88.185c-0.12-0.067-0.24-0.12-0.374-0.187-0.828-0.401-1.696-0.828-2.525-1.269l-153.222-79.302c-20.824-10.779-45.615-10.779-66.439 0l-73.025 37.761 490.481 253.87c6.011 3.139 12.623 4.675 19.221 4.675 6.585 0 13.21-1.536 19.221-4.675l490.468-253.87-6.318-3.259-66.693-34.502z"></path>
</svg>
