<!-- Generated by IcoMoon.io -->
<svg version="1.1" xmlns="http://www.w3.org/2000/svg" width="3356" height="1024" viewBox="0 0 3356 1024">
<title></title>
<g id="icomoon-ignore">
</g>
<path fill="#000" d="M2563.18 637.452l108.28 175.308h-161.606l-89.372-150.394h-253.47v150.394h-146.978v-601.536h430.566c136.63 0 230.302 91.1 230.302 225.158 0 92.808-44.686 165.846-117.724 201.068zM2167.012 515.408h266.228c42.134 0 100.704 0 100.704-79.126 0-78.1-58.57-78.1-100.704-78.1h-266.228v157.226z"></path>
<path fill="#000" d="M1268.006 358.162v-146.938h-593.84v601.556h593.84v-146.96h-446.862v-80.35h446.862v-146.96h-446.862v-80.35z"></path>
<path fill="#000" d="M593.834 665.802v146.978h-593.86v-601.554h146.978v454.576z"></path>
<path fill="#000" d="M1492.842 585.472h446.862v-146.96h-315.114c-33.594 0-64.436 18.646-80.050 48.404l-51.698 98.556z"></path>
<path fill="#000" d="M1345.884 211.224v601.556h146.96v-454.618h446.862v-146.938z"></path>
<path fill="#000" d="M2948.258 585.472h406.818v-146.96h-406.818z"></path>
<path fill="#000" d="M2761.236 211.224v601.556h593.84v-146.96h-446.862v-307.66h446.862v-146.938z"></path>
</svg>
