<!-- Generated by IcoMoon.io -->
<svg version="1.1" xmlns="http://www.w3.org/2000/svg" width="3356" height="1024" viewBox="0 0 3356 1024">
<title></title>
<g id="icomoon-ignore">
</g>
<path fill="#086736" d="M1859.18 425.504l-106.193 54.979-31.482-16.27c-13.464-6.96-28.586-10.62-43.733-10.62-15.188 0-30.308 3.66-43.773 10.658l-31.416 16.228-106.259-55.007 162.226-83.965c6.012-3.112 12.622-4.648 19.222-4.648 6.586 0 13.184 1.536 19.194 4.648h0.028l162.188 83.991z"></path>
<path fill="#086736" d="M2024.344 344.051l-72.959 37.763c-20.85 10.778-45.643 10.778-66.467 0l-163.402-84.325c-2.524-1.296-5.076-2.498-7.694-3.566-11.394-4.648-23.708-7.080-36.039-7.080-12.356 0-24.644 2.43-36.039 7.080-2.618 1.082-5.21 2.244-7.694 3.566h-0.026l-162.494 84.111c-20.85 10.778-45.617 10.778-66.467 0l-72.999-37.789 326.485-169.026c6.012-3.112 12.622-4.676 19.222-4.676 6.584 0 13.184 1.576 19.194 4.676h0.028l327.353 169.266z"></path>
<path fill="#086736" d="M2187.358 258.629l-72.919 37.709c-20.824 10.778-45.617 10.778-66.439 0l-153.224-79.303c-0.828-0.426-1.696-0.868-2.524-1.27-0.12-0.068-0.24-0.12-0.374-0.188l-170.376-88.187c-2.524-1.322-5.076-2.498-7.694-3.566-11.394-4.648-23.708-7.078-36.039-7.078-12.356 0-24.644 2.43-36.039 7.078-2.618 1.042-5.21 2.244-7.694 3.566h-0.026l-170.348 88.173c-0.12 0.052-0.24 0.12-0.374 0.188-0.828 0.402-1.696 0.828-2.524 1.27l-153.224 79.303c-20.824 10.778-45.617 10.778-66.439 0l-73.039-37.763 318.778-164.992c0.24-0.12 0.494-0.24 0.736-0.374l170.976-88.521c6.012-3.138 12.622-4.674 19.222-4.674 6.586 0 13.184 1.536 19.194 4.674l490.395 253.954z"></path>
<path fill="#2e2e2d" d="M1487.304 593.354l171.712 88.881c6.012 3.14 12.622 4.674 19.222 4.674 6.584 0 13.21-1.536 19.22-4.674l490.475-253.874-6.318-3.26-66.707-34.502c-20.824-10.778-45.617-10.778-66.439 0l-153.212 79.317c-0.828 0.428-1.696 0.868-2.524 1.27-0.12 0.068-0.24 0.12-0.374 0.188l-170.388 88.173c-2.524 1.322-5.076 2.498-7.694 3.566-11.394 4.648-23.708 7.078-36.039 7.078-12.314 0-24.644-2.432-36.039-7.078-2.618-1.082-5.168-2.244-7.694-3.566l-170.388-88.187c-0.12-0.068-0.24-0.12-0.374-0.188-0.828-0.402-1.696-0.828-2.524-1.27l-153.224-79.303c-20.824-10.778-45.617-10.778-66.439 0l-73.027 37.763 318.778 164.992z"></path>
<path fill="#2e2e2d" d="M2114.921 559.146c-20.824-10.778-45.617-10.778-66.439 0l-153.224 79.303c-0.828 0.428-1.696 0.868-2.524 1.27-0.12 0.068-0.24 0.12-0.374 0.188l-170.388 88.187c-2.524 1.322-5.076 2.498-7.694 3.566-11.394 4.648-23.708 7.078-36.039 7.078-12.314 0-24.644-2.432-36.039-7.078-2.618-1.082-5.168-2.244-7.694-3.566l-170.388-88.185c-0.12-0.068-0.24-0.12-0.374-0.188-0.828-0.4-1.696-0.828-2.524-1.27l-153.224-79.303c-20.824-10.778-45.617-10.778-66.439 0l-73.027 37.761 490.487 253.874c6.012 3.14 12.622 4.674 19.222 4.674 6.586 0 13.21-1.536 19.222-4.674l490.475-253.874-6.318-3.26-66.693-34.502z"></path>
<path fill="#2e2e2d" d="M2114.921 727.692c-20.824-10.778-45.617-10.778-66.439 0l-153.224 79.303c-0.828 0.428-1.696 0.868-2.524 1.27-0.12 0.068-0.24 0.12-0.374 0.188l-170.388 88.185c-2.524 1.322-5.076 2.498-7.694 3.566-11.394 4.648-23.708 7.078-36.039 7.078-12.314 0-24.644-2.432-36.039-7.078-2.618-1.082-5.168-2.244-7.694-3.566l-170.388-88.185c-0.12-0.068-0.24-0.12-0.374-0.188-0.828-0.4-1.696-0.828-2.524-1.27l-153.224-79.303c-20.824-10.778-45.617-10.778-66.439 0l-73.027 37.761 490.487 253.874c6.012 3.14 12.622 4.674 19.222 4.674 6.586 0 13.21-1.536 19.222-4.674l490.475-253.874-6.318-3.26-66.693-34.502z"></path>
</svg>
