<svg xmlns="http://www.w3.org/2000/svg" viewBox="0 0 1669.81 299.39"><defs><style>.cls-1{fill:#fff;}</style></defs><title>Recurso 13</title><g id="Capa_2" data-name="Capa 2"><g id="Capa_1-2" data-name="Capa 1"><path class="cls-1" d="M1275.69,212.14l53.89,87.25h-80.43l-44.48-74.85H1078.52v74.85h-73.15V0h214.29c68,0,114.62,45.34,114.62,112.06C1334.28,158.25,1312,194.6,1275.69,212.14Zm-197.17-60.75H1211c21,0,50.12,0,50.12-39.37,0-38.87-29.16-38.87-50.12-38.87h-132.5Z"/><polygon class="cls-1" points="631.09 73.14 631.09 0 335.54 0 335.54 299.39 631.09 299.39 631.09 226.25 408.69 226.25 408.69 186.26 631.09 186.26 631.09 181.77 631.09 117.62 631.09 113.13 408.69 113.13 408.69 73.14 631.09 73.14"/><polygon class="cls-1" points="295.56 226.25 295.56 299.39 0 299.39 0 0 73.15 0 73.15 226.25 295.56 226.25"/><path class="cls-1" d="M743,186.26h222.4V113.13H808.56a45,45,0,0,0-39.84,24.09Z"/><polygon class="cls-1" points="669.84 0 669.84 299.39 742.99 299.39 742.99 226.25 742.99 218.34 742.99 186.26 742.99 113.13 742.99 73.14 782.97 73.14 965.39 73.14 965.39 0 669.84 0"/><polygon class="cls-1" points="1467.33 186.26 1669.81 186.26 1669.81 181.77 1669.81 117.62 1669.81 113.13 1467.33 113.13 1467.33 186.26"/><polygon class="cls-1" points="1374.26 0 1374.26 299.39 1669.81 299.39 1669.81 226.25 1447.41 226.25 1447.41 218.34 1447.41 186.26 1447.41 113.13 1447.41 73.14 1487.39 73.14 1669.81 73.14 1669.81 0 1374.26 0"/></g></g></svg>