<!-- Generated by IcoMoon.io -->
<svg version="1.1" xmlns="http://www.w3.org/2000/svg" width="3355" height="1024" viewBox="0 0 3355 1024">
<title></title>
<g id="icomoon-ignore">
</g>
<path fill="#000" d="M1858.648 425.503l-106.192 54.98-31.483-16.269c-13.464-6.959-28.585-10.619-43.733-10.619-15.187 0-30.308 3.66-43.773 10.659l-31.416 16.229-106.259-55.007 162.227-83.965c6.011-3.112 12.623-4.648 19.221-4.648 6.585 0 13.184 1.536 19.194 4.648h0.027l162.187 83.992z"></path>
<path fill="#000" d="M2023.813 344.049l-72.959 37.762c-20.851 10.779-45.643 10.779-66.467 0l-163.402-84.326c-2.525-1.296-5.076-2.498-7.694-3.566-11.394-4.648-23.709-7.079-36.039-7.079-12.356 0-24.644 2.431-36.039 7.079-2.618 1.082-5.209 2.244-7.694 3.566h-0.027l-162.494 84.112c-20.851 10.779-45.616 10.779-66.467 0l-72.999-37.789 326.485-169.026c6.011-3.112 12.623-4.675 19.221-4.675 6.585 0 13.184 1.576 19.194 4.675h0.027l327.353 169.266z"></path>
<path fill="#000" d="M2186.828 258.627l-72.919 37.709c-20.824 10.779-45.616 10.779-66.44 0l-153.224-79.303c-0.828-0.427-1.696-0.868-2.525-1.269-0.12-0.053-0.24-0.12-0.374-0.187l-170.375-88.186c-2.525-1.322-5.076-2.498-7.694-3.566-11.394-4.648-23.709-7.079-36.039-7.079-12.356 0-24.644 2.431-36.039 7.079-2.618 1.042-5.209 2.244-7.694 3.566h-0.027l-170.348 88.173c-0.12 0.053-0.24 0.12-0.374 0.187-0.828 0.401-1.696 0.828-2.525 1.269l-153.224 79.303c-20.824 10.779-45.616 10.779-66.44 0l-73.039-37.762 318.777-164.992c0.24-0.12 0.494-0.24 0.735-0.374l170.976-88.52c6.011-3.139 12.623-4.675 19.221-4.675 6.585 0 13.184 1.536 19.194 4.675l490.395 253.954z"></path>
<path fill="#000" d="M1486.773 593.353l171.711 88.881c6.011 3.139 12.623 4.675 19.221 4.675 6.585 0 13.21-1.536 19.221-4.675l490.475-253.874-6.318-3.259-66.708-34.502c-20.824-10.779-45.616-10.779-66.44 0l-153.211 79.317c-0.828 0.427-1.696 0.868-2.525 1.269-0.12 0.067-0.24 0.12-0.374 0.187l-170.388 88.173c-2.525 1.322-5.076 2.498-7.694 3.566-11.394 4.648-23.709 7.079-36.039 7.079-12.315 0-24.644-2.431-36.039-7.079-2.618-1.082-5.169-2.244-7.694-3.566l-170.388-88.186c-0.12-0.067-0.24-0.12-0.374-0.187-0.828-0.401-1.696-0.828-2.525-1.269l-153.224-79.303c-20.824-10.779-45.616-10.779-66.44 0l-73.026 37.762 318.777 164.992z"></path>
<path fill="#000" d="M2114.39 559.145c-20.824-10.779-45.616-10.779-66.44 0l-153.224 79.303c-0.828 0.427-1.696 0.868-2.525 1.269-0.12 0.053-0.24 0.12-0.374 0.187l-170.388 88.186c-2.525 1.322-5.076 2.498-7.694 3.566-11.394 4.648-23.709 7.079-36.039 7.079-12.315 0-24.644-2.431-36.039-7.079-2.618-1.082-5.169-2.244-7.694-3.566l-170.388-88.186c-0.12-0.067-0.24-0.12-0.374-0.187-0.828-0.401-1.696-0.828-2.525-1.269l-153.224-79.303c-20.824-10.779-45.616-10.779-66.44 0l-73.026 37.762 490.488 253.874c6.011 3.139 12.623 4.675 19.221 4.675 6.585 0 13.21-1.536 19.221-4.675l490.475-253.874-6.318-3.259-66.694-34.502z"></path>
<path fill="#000" d="M2114.39 727.69c-20.824-10.779-45.616-10.779-66.44 0l-153.224 79.303c-0.828 0.427-1.696 0.868-2.525 1.269-0.12 0.067-0.24 0.12-0.374 0.187l-170.388 88.186c-2.525 1.322-5.076 2.498-7.694 3.566-11.394 4.648-23.709 7.079-36.039 7.079-12.315 0-24.644-2.431-36.039-7.079-2.618-1.082-5.169-2.244-7.694-3.566l-170.388-88.186c-0.12-0.067-0.24-0.12-0.374-0.187-0.828-0.401-1.696-0.828-2.525-1.269l-153.224-79.303c-20.824-10.779-45.616-10.779-66.44 0l-73.026 37.762 490.488 253.874c6.011 3.139 12.623 4.675 19.221 4.675 6.585 0 13.21-1.536 19.221-4.675l490.475-253.874-6.318-3.259-66.694-34.502z"></path>
</svg>
