<!-- Generated by IcoMoon.io -->
<svg version="1.1" xmlns="http://www.w3.org/2000/svg" width="512" height="512" viewBox="0 0 512 512">
<title></title>
<g id="icomoon-ignore">
</g>
<path d="M401.067 204.8h-8.534v-102.4c0-56.464-45.936-102.4-102.4-102.4h-68.267c-56.464 0-102.4 45.936-102.4 102.4v102.4h-8.534c-14.080 0-25.6 11.52-25.6 25.6v256c0 14.080 11.52 25.6 25.6 25.6h290.134c14.080 0 25.6-11.52 25.6-25.6v-256c0-14.080-11.52-25.6-25.6-25.6zM187.733 102.4c0-18.822 15.312-34.133 34.133-34.133h68.266c18.822 0 34.133 15.312 34.133 34.133v102.4h-136.534v-102.4z"></path>
</svg>
