<!-- Generated by IcoMoon.io -->
<svg version="1.1" xmlns="http://www.w3.org/2000/svg" width="1024" height="1024" viewBox="0 0 1024 1024">
<title></title>
<g id="icomoon-ignore">
</g>
<path fill="#000" d="M871.232 337.728l101.44-0.16 1.504-25.888c0.16-4.352 5.568-107.904-46.816-163.424-21.664-23.040-50.56-35.072-83.68-35.072h-585.568c-56.896 0-103.104 46.368-103.104 103.232v396.416h-155.008v297.984h1023.968v-297.984h-152.768v-275.104zM871.232 282.496v-108.352c5.856 2.848 11.136 6.784 15.936 11.904 22.112 23.328 29.632 66.208 31.616 96.48h-47.552zM871.232 667.904h97.664v187.68h-913.664v-187.68h99.776v62.144h-46.656v55.072h810.272v-55.072h-47.392v-62.144zM816 310.176v419.872h-605.888v-513.632c0-26.496 21.536-48.16 48-48.16h557.888v141.92zM444.576 337.728v-55.072h264.576v55.072h-264.576zM444.576 455.712v-55.072h264.576v55.072h-264.576zM444.576 573.856v-55.072h186.624v55.072h-186.624zM312.288 337.728v-55.072h63.2v55.072h-63.2zM312.288 455.712v-55.072h63.2v55.072h-63.2zM312.288 573.856v-55.072h63.2v55.072h-63.2z"></path>
</svg>
