<!-- Generated by IcoMoon.io -->
<svg version="1.1" xmlns="http://www.w3.org/2000/svg" width="1024" height="1024" viewBox="0 0 1024 1024">
<title></title>
<g id="icomoon-ignore">
</g>
<path fill="#000" d="M898.272 832.224l-419.392 125.984c-4.384 1.056-8.928 2.272-13.312 2.272s-8.928-1.056-13.312-2.272l-419.104-125.984c-19.968-5.6-33.12-23.296-33.12-44.32v-553.12c0-19.968 13.312-37.664 33.12-44.32l37.664-11.040 90.752-27.68v223.552l104.064-19.968v-234.592l92.864-27.68 94.080-27.68c1.056 0 2.272 0 2.272-1.056h2.272c5.6-1.056 11.040-1.056 16.64 0h2.272c1.056 0 2.272 0 2.272 1.056l176.96 53.088c-23.296 24.352-40.992 50.816-52.032 79.712l-92.864-27.68v682.56l328.512-98.464v-201.312h2.272c31.008 0 60.8-5.6 89.536-16.64v251.072c-0.288 21.184-13.6 38.88-32.352 44.48v0zM970.112 425.056c-35.392 35.392-81.824 53.088-129.472 53.088-46.432 0-94.080-17.696-129.472-53.088-71.84-71.84-71.84-186.944 0-258.944 35.392-35.392 83.040-53.088 129.472-53.088s94.080 17.696 129.472 53.088c71.84 72 71.84 188.16 0 258.944v0zM877.248 295.584l45.376-45.376-36.448-36.448-45.376 45.376-45.376-45.376-36.448 36.448 45.376 45.376-45.376 45.376 36.448 36.448 45.376-45.376 45.376 45.376 36.448-36.448-45.376-45.376z"></path>
</svg>
