<!-- Generated by IcoMoon.io -->
<svg version="1.1" xmlns="http://www.w3.org/2000/svg" width="1024" height="1024" viewBox="0 0 1024 1024">
<title></title>
<g id="icomoon-ignore">
</g>
<path fill="#000" d="M838.208 555.456v198.976l-328.352 98.432v-682.144l89.472 26.528c13.184-29.888 30.944-56.416 53.088-79.616l-174.56-51.872c0-1.056-1.056-1.056-2.272-1.056h-2.272c-5.472-1.056-11.072-1.056-16.544 0h-2.272c0 1.056-1.056 1.056-2.272 1.056l-94.016 27.616-92.8 27.616v234.304l-103.872 19.872v-223.232l-90.688 27.616-37.6 11.072c-19.872 5.472-33.216 23.2-33.216 44.288v552.8c0 20.928 13.344 38.688 33.216 44.288l419.168 125.888c4.384 1.056 8.8 2.272 13.184 2.272s8.8-1.056 13.184-2.272l417.824-126.016c19.872-6.688 33.216-24.256 33.216-44.288v-248.704c-27.616 10.016-58.528 16.544-90.688 16.544h-0.896z"></path>
<path fill="#000" d="M839.424 112.16c-101.76 0-184.576 81.728-184.576 184.576 0 101.76 82.944 184.576 184.576 184.576s184.576-82.944 184.576-184.576c0-101.6-82.944-184.576-184.576-184.576zM816.224 371.968l-69.6-69.6 35.328-35.328 34.272 34.272 80.672-80.672 35.328 35.328-116.032 116.032z"></path>
</svg>
