<!-- Generated by IcoMoon.io -->
<svg version="1.1" xmlns="http://www.w3.org/2000/svg" width="1024" height="1024" viewBox="0 0 1024 1024">
<title></title>
<g id="icomoon-ignore">
</g>
<path fill="#000" d="M273.152 681.088v0h-129.6c-2.72 0-4.992 2.272-4.992 4.992v129.6c0 2.72 2.272 4.992 4.992 4.992h129.6c1.376 0 2.56-0.448 3.488-1.504 0.896-0.896 1.504-2.112 1.504-3.488v-129.6c0-1.376-0.448-2.56-1.504-3.488-0.896-0.896-2.112-1.504-3.488-1.504z"></path>
<path fill="#000" d="M751.040 963.872c0 8-6.496 14.528-14.528 14.528h-676.288c-8 0-14.528-6.496-14.528-14.528v-903.744c0-8 6.496-14.528 14.528-14.528h676.16c8 0 14.528 6.496 14.528 14.528v419.808l45.504-45.504v-374.304c0-15.872-6.336-31.168-17.536-42.496-11.2-11.2-26.464-17.536-42.496-17.536h-676.16c-15.872 0-31.168 6.368-42.496 17.536-11.2 11.2-17.536 26.464-17.696 42.496v903.744c0 15.872 6.368 31.168 17.696 42.496 11.2 11.2 26.464 17.536 42.496 17.536h676.16c15.872 0 31.168-6.336 42.496-17.536 11.2-11.2 17.536-26.464 17.536-42.496v-191.616l-45.376 45.504v146.080z"></path>
<path fill="#000" d="M583.008 728.416l88.48 88.48 291.424-291.424-88.48-88.48z"></path>
<path fill="#000" d="M278.144 447.136c0-1.376-0.448-2.56-1.504-3.488-0.896-0.896-2.112-1.504-3.488-1.504h-129.6c-2.72 0-4.992 2.272-4.992 4.992v129.6c0 2.72 2.272 4.992 4.992 4.992h129.6c1.376 0 2.56-0.448 3.488-1.504 0.896-0.896 1.504-2.112 1.504-3.488v-129.6z"></path>
<path fill="#000" d="M1021.888 422.176c-5.76-21.632-22.688-38.4-44.32-44.32-21.632-5.76-44.608 0.448-60.48 16.192l-13.76 13.76 88.48 88.48 13.76-13.76c15.872-15.584 22.080-38.72 16.32-60.352z"></path>
<path fill="#000" d="M278.144 208.32c0-1.376-0.448-2.56-1.504-3.488-0.896-0.896-2.112-1.504-3.488-1.504h-129.6c-2.72 0-4.992 2.272-4.992 4.992v129.6c0 2.72 2.272 4.992 4.992 4.992h129.6c1.376 0 2.56-0.448 3.488-1.504 0.896-0.896 1.504-2.112 1.504-3.488v-129.6z"></path>
<path fill="#000" d="M335.744 536.192h322.432v45.504h-322.432v-45.504z"></path>
<path fill="#000" d="M335.744 297.408h322.432v45.504h-322.432v-45.504z"></path>
<path fill="#000" d="M639.104 849.248l3.488-3.488-88.48-88.48-3.488 3.488c-4.224 4.224-7.104 9.664-8.16 15.424l-17.536 88.608c-0.608 2.88 0.288 5.76 2.432 7.712 1.952 1.952 4.992 2.88 7.712 2.432v0l88.608-17.536c5.76-1.056 11.2-3.936 15.424-8.16z"></path>
<path fill="#000" d="M335.744 775.136h140.352v45.504h-140.352v-45.504z"></path>
</svg>
