<!-- Generated by IcoMoon.io -->
<svg version="1.1" xmlns="http://www.w3.org/2000/svg" width="1024" height="1024" viewBox="0 0 1024 1024">
<title></title>
<g id="icomoon-ignore">
</g>
<path fill="#000" d="M1019.168 4.832c-3.168-3.168-7.232-4.832-11.744-4.832h-561.504c-9.184 0-16.576 7.392-16.576 16.576v445.856h-264.128c-9.184 0-16.576 7.392-16.576 16.576v247.712h-132.064c-9.184 0-16.576 7.392-16.576 16.576v264.128c0 4.352 1.792 8.576 4.832 11.744s7.232 4.832 11.744 4.832h594.496c4.352 0 8.576-1.792 11.744-4.832 3.168-3.168 4.832-7.232 4.832-11.744v-214.592h379.776c4.352 0 8.576-1.792 11.744-4.832s4.832-7.232 4.832-11.744v-759.68c0-4.352-1.792-8.576-4.832-11.744zM297.28 495.424h32.992v66.112h-32.992v-66.112zM181.632 495.424h82.528v82.528c0 4.352 1.792 8.576 4.832 11.744 3.168 3.168 7.232 4.832 11.744 4.832h66.112c4.352 0 8.576-1.792 11.744-4.832 3.168-3.168 4.832-7.232 4.832-11.744v-82.528h82.528v231.136h-264.256v-231.136zM479.008 759.712v66.112h-32.992v-66.112h32.992zM148.64 759.712h32.992v66.112h-32.992v-66.112zM297.28 991.008h-264.256v-231.296h82.528v82.528c0 4.352 1.792 8.576 4.832 11.744 3.168 3.168 7.232 4.832 11.744 4.832h66.112c4.352 0 8.576-1.792 11.744-4.832 3.168-3.168 4.832-7.232 4.832-11.744v-82.528h82.528v231.296zM594.528 991.008h-264.128v-231.296h82.528v82.528c0 4.352 1.792 8.576 4.832 11.744 3.168 3.168 7.232 4.832 11.744 4.832h65.952c4.352 0 8.576-1.792 11.744-4.832 3.168-3.168 4.832-7.232 4.832-11.744v-82.528h82.528v231.296zM991.008 759.712h-363.36v-16.576c0-4.352-1.792-8.576-4.832-11.744-3.168-3.168-7.232-4.832-11.744-4.832h-132.064v-247.552c0-4.352-1.792-8.576-4.832-11.744-3.168-3.168-7.232-4.832-11.744-4.832v-429.472h528.544v726.688z"></path>
<path fill="#000" d="M512 181.632v0 49.536c0 4.352 1.792 8.576 4.832 11.744 3.168 3.168 7.232 4.832 11.744 4.832h99.072c4.352 0 8.576-1.792 11.744-4.832 3.168-3.168 4.832-7.232 4.832-11.744v-49.536c6.624 0 12.64-4.064 15.2-10.24s1.216-13.248-3.456-18.080l-66.112-65.952c-3.168-3.168-7.392-4.832-11.744-4.832s-8.576 1.792-11.744 4.832l-66.112 66.112c-4.672 4.832-6.016 11.904-3.456 18.080 2.56 6.016 8.576 10.080 15.2 10.080zM578.112 122.432l26.208 26.208h-52.544l26.336-26.208zM544.992 181.632h66.112v32.992h-66.112v-32.992z"></path>
<path fill="#000" d="M512 412.928v0 49.536c0 4.352 1.792 8.576 4.832 11.744 3.168 3.168 7.232 4.832 11.744 4.832h99.072c4.352 0 8.576-1.792 11.744-4.832 3.168-3.168 4.832-7.232 4.832-11.744v-49.536c6.624 0 12.64-4.064 15.2-10.24s1.216-13.248-3.456-18.080l-66.112-66.112c-3.168-3.168-7.392-4.832-11.744-4.832s-8.576 1.792-11.744 4.832l-66.112 66.112c-4.672 4.832-6.016 11.904-3.456 18.080s8.576 10.24 15.2 10.24zM578.112 353.6l26.208 26.208h-52.544l26.336-26.208zM544.992 412.928h66.112v32.992h-66.112v-32.992z"></path>
<path fill="#000" d="M512 644.064v0 49.536c0 4.352 1.792 8.576 4.832 11.744 3.168 3.168 7.232 4.832 11.744 4.832h99.072c4.352 0 8.576-1.792 11.744-4.832 3.168-3.168 4.832-7.232 4.832-11.744v-49.536c6.624 0 12.64-4.064 15.2-10.24s1.216-13.248-3.456-18.080l-66.112-66.112c-3.168-3.168-7.392-4.832-11.744-4.832s-8.576 1.792-11.744 4.832l-66.112 66.24c-4.672 4.832-6.016 11.904-3.456 18.080 2.56 6.016 8.576 10.080 15.2 10.080zM578.112 584.896l26.208 26.208h-52.544l26.336-26.208zM544.992 644.064h66.112v32.992h-66.112v-32.992z"></path>
<path fill="#000" d="M743.136 264.288h198.176c4.352 0 8.576-1.792 11.744-4.832 3.168-3.168 4.832-7.232 4.832-11.744v-165.184c0-4.352-1.792-8.576-4.832-11.744-3.168-3.168-7.232-4.832-11.744-4.832h-198.176c-9.184 0-16.576 7.392-16.576 16.576v165.184c0 4.352 1.792 8.576 4.832 11.744 3.168 3.008 7.392 4.832 11.744 4.832zM759.712 99.104h165.184v132.064h-165.184v-132.064z"></path>
<path fill="#000" d="M825.824 174.848l-21.376-21.536-23.488 23.488 32.992 32.992c3.168 3.168 7.392 4.832 11.744 4.832s8.576-1.792 11.744-4.832l66.112-66.112-23.328-23.2-54.368 54.368z"></path>
<path fill="#000" d="M743.136 495.424h198.176c4.352 0 8.576-1.792 11.744-4.832s4.832-7.232 4.832-11.744v-165.024c0-4.352-1.792-8.576-4.832-11.744-3.168-3.168-7.232-4.832-11.744-4.832h-198.176c-9.184 0-16.576 7.392-16.576 16.576v165.184c0 4.352 1.792 8.576 4.832 11.744 3.168 3.008 7.392 4.672 11.744 4.672zM759.712 330.4h165.184v132.064h-165.184v-132.064z"></path>
<path fill="#000" d="M825.824 406.144l-21.376-21.536-23.328 23.488 32.992 32.992c3.168 3.168 7.392 4.832 11.744 4.832s8.576-1.792 11.744-4.832l66.112-66.112-23.488-23.488-54.368 54.656z"></path>
<path fill="#000" d="M743.136 726.72h198.176c4.352 0 8.576-1.792 11.744-4.832 3.168-3.168 4.832-7.232 4.832-11.744v-165.184c0-4.352-1.792-8.576-4.832-11.744-3.168-3.168-7.232-4.832-11.744-4.832h-198.176c-9.184 0-16.576 7.392-16.576 16.576v165.184c0 4.352 1.792 8.576 4.832 11.744 3.168 3.008 7.392 4.832 11.744 4.832zM759.712 561.536h165.184v132.064h-165.184v-132.064z"></path>
<path fill="#000" d="M825.824 637.28l-21.376-21.376-23.488 23.488 32.992 32.992c3.168 3.168 7.392 4.832 11.744 4.832s8.576-1.792 11.744-4.832l66.112-66.112-23.328-23.488-54.368 54.496z"></path>
<path fill="#000" d="M198.176 924.896h66.112v32.992h-66.112v-32.992z"></path>
<path fill="#000" d="M495.424 924.896h66.112v32.992h-66.112v-32.992z"></path>
<path fill="#000" d="M346.816 660.608h66.112v32.992h-66.112v-32.992z"></path>
</svg>
