<!-- Generated by IcoMoon.io -->
<svg version="1.1" xmlns="http://www.w3.org/2000/svg" width="1024" height="1024" viewBox="0 0 1024 1024">
<title></title>
<g id="icomoon-ignore">
</g>
<path fill="#000" d="M989.344 578.688v0l-78.336-144.448c-6.592-11.968-20.48-22.432-33.792-25.28l-347.648-75.36c0 0-14.656-3.296-27.36-0.896l-355.264 76.256c-13.312 2.976-27.2 13.312-33.792 25.28l-78.336 144.448c-5.536 9.856-5.536 20.768-0.288 29.472 5.088 8.512 14.496 13.6 25.12 13.6l56.832-5.536v246.432c0 16.736 11.52 32.896 27.2 38.144l348.992 121.12c22.432 5.376 42.304-1.184 42.304-1.184l345.088-119.776c15.84-5.536 27.36-21.536 27.36-38.144v-246.112l53.376 5.248 3.584 0.16c10.752 0 20.192-5.088 25.12-13.6 5.376-8.96 5.248-19.872-0.16-29.76zM373.728 545.344c-0.608 0.736-2.4 1.792-2.688 1.952l-283.36 27.2 64.608-118.72c0.736-1.056 3.296-2.976 4.192-3.296l311.008-67.584-93.76 160.448zM862.816 859.936v0l-328.512 114.080v-539.2l78.048 133.536c7.328 12.256 22.272 21.984 36.64 23.328l213.984 20.64v247.616zM653.632 547.424c-0.896-0.288-2.688-1.344-2.976-1.632l-93.888-160.736 310.72 67.424c1.344 0.448 3.744 2.24 4.352 3.136l64.608 119.008-282.752-27.2z"></path>
<path fill="#000" d="M575.136 919.136l255.104-88.512v-67.872l-255.104 88.384z"></path>
<path fill="#000" d="M638.4 785.152l191.84-66.528v-50.688l-191.84 66.688z"></path>
<path fill="#000" d="M359.68 119.040l57.28 67.584c7.040 8.064 18.24 21.696 25.12 29.76l57.28 67.584c7.040 8.064 18.24 8.064 25.12 0l57.28-67.584c7.040-8.064 18.24-21.696 25.12-29.76l57.28-67.584c7.040-8.064 3.872-14.816-6.88-14.816h-71.936v-84.64c0-10.624-8.672-19.584-19.584-19.584h-107.52c-10.624 0-19.424 8.672-19.424 19.584v84.48h-71.936c-10.912 0-14.048 6.72-7.168 14.944v0z"></path>
</svg>
