<!-- Generated by IcoMoon.io -->
<svg version="1.1" xmlns="http://www.w3.org/2000/svg" width="1024" height="1024" viewBox="0 0 1024 1024">
<title></title>
<g id="icomoon-ignore">
</g>
<path fill="#000" d="M1023.968 320c-52.448-15.36-104.896-30.592-157.184-45.824-63.456-18.528-126.912-36.928-190.368-55.456v0c-11.008 17.184-20.512 35.264-28.48 54.112-11.904 27.744-20.512 56.672-26.24 86.208 11.296 2.56 22.464 5.12 33.76 7.68 14.464 3.328 28.8 6.624 43.264 9.792-9.184 11.456-18.528 23.072-27.744 34.528-3.776 4.832-7.68 9.504-11.456 14.304 66.016 22.912 132.032 45.664 198.208 68.576l-345.728 143.776-345.44-143.648c81.536-28.192 162.912-56.352 244.448-84.544v0c-7.68-19.904-15.232-39.776-22.912-59.52-6.176-16.128-12.512-32.416-18.688-48.544 16.864 3.904 33.76 7.68 50.784 11.616 10.112 2.272 20.192 4.672 30.304 6.944 0.288-1.504 0.608-3.008 0.896-4.512-33.312-32.544-66.624-65.12-99.936-97.664-117.248 33.92-234.368 68.128-351.456 102.176 55.456 58.016 110.912 116.064 166.4 173.92 0 0 0 0 0 0l23.648 343.776 321.92 165.184 321.792-165.024 23.648-343.776c55.616-58.016 111.072-116.064 166.528-174.080z"></path>
<path fill="#000" d="M504.288 574.56c48.224-60.288 96.608-120.416 144.832-180.704-19.744-4.512-39.328-9.056-59.072-13.568 25.76-196.384 168.512-336.544 338.048-332.032-204.832-90.72-422.144 55.008-455.008 305.216-19.584-4.512-39.328-9.056-59.072-13.568 29.984 78.208 60.128 156.448 90.272 234.656z"></path>
</svg>
