<?xml version="1.0" encoding="utf-8"?>
<!-- Generator: Adobe Illustrator 22.1.0, SVG Export Plug-In . SVG Version: 6.00 Build 0)  -->
<svg version="1.1" id="Layer_1" xmlns="http://www.w3.org/2000/svg" xmlns:xlink="http://www.w3.org/1999/xlink" x="0px" y="0px"
	 viewBox="0 0 512 512" style="enable-background:new 0 0 512 512;" xml:space="preserve">
<g>
	<path d="M256,31C131.7,31,31,131.7,31,256s100.7,225,225,225s225-100.7,225-225S380.3,31,256,31z M386.6,281.4
		c0,6-4.9,10.9-10.9,10.9h-83.5v83.5c0,6-4.9,10.9-10.9,10.9h-50.8c-6,0-10.9-4.9-10.9-10.9v-83.5h-83.5c-6,0-10.9-4.9-10.9-10.9
		v-50.8c0-6,4.9-10.9,10.9-10.9h83.5v-83.5c0-6,4.9-10.9,10.9-10.9h50.8c6,0,10.9,4.9,10.9,10.9v83.5h83.5c6,0,10.9,4.9,10.9,10.9
		V281.4z"/>
</g>
</svg>
