<!-- Generated by IcoMoon.io -->
<svg version="1.1" xmlns="http://www.w3.org/2000/svg" width="1024" height="1024" viewBox="0 0 1024 1024">
<title></title>
<g id="icomoon-ignore">
</g>
<path fill="#000" d="M512 960c-247.424 0-448-200.576-448-448s200.576-448 448-448v0c247.424 0 448 200.576 448 448s-200.576 448-448 448v0zM512 1024c282.784 0 512-229.216 512-512s-229.216-512-512-512v0c-282.784 0-512 229.216-512 512s229.216 512 512 512v0z"></path>
<path fill="#000" d="M512 256c17.664 0 32 14.336 32 32v0 192h192c17.664 0 32 14.336 32 32s-14.336 32-32 32v0h-192v192c0 17.664-14.336 32-32 32s-32-14.336-32-32v0-192h-192c-17.664 0-32-14.336-32-32s14.336-32 32-32v0h192v-192c0-17.664 14.336-32 32-32v0z"></path>
</svg>
