<!-- Generated by IcoMoon.io -->
<svg version="1.1" xmlns="http://www.w3.org/2000/svg" width="1024" height="1024" viewBox="0 0 1024 1024">
<title></title>
<g id="icomoon-ignore">
</g>
<path fill="#000" d="M1024 512c0 282.752-229.216 512-512 512s-512-229.216-512-512v0c0-282.752 229.216-512 512-512s512 229.216 512 512v0zM544 288c0-17.664-14.336-32-32-32s-32 14.336-32 32v0 192h-192c-17.664 0-32 14.336-32 32s14.336 32 32 32v0h192v192c0 17.664 14.336 32 32 32s32-14.336 32-32v0-192h192c17.664 0 32-14.336 32-32s-14.336-32-32-32v0h-192v-192z"></path>
</svg>
