<!-- Generated by IcoMoon.io -->
<svg version="1.1" xmlns="http://www.w3.org/2000/svg" width="1024" height="1024" viewBox="0 0 1024 1024">
<title></title>
<g id="icomoon-ignore">
</g>
<path fill="#000" d="M930.528 203.136h-59.168v-201.952h-716.384v201.952h-59.328c-53.472 0-95.648 43.936-95.648 98.656v372.96c0 54.56 42.208 98.656 94.528 98.656h23.968v249.376h587.744l199.232-207.808v-40.448h23.968c52.352 0 94.528-43.936 94.528-98.656v-374.048c1.12-54.72-41.088-98.656-93.44-98.656v0zM214.176 62.912h596.768v140.224h-596.768v-140.224zM603.616 649.856v300.608h-31.872v-300.608h31.872zM538.72 950.304h-80.896v-300.608h80.896v300.608zM436.256 950.304h-31.872v-300.448h31.872v300.448zM361.056 950.304h-31.872v-300.448h31.872v300.448zM235.744 950.304h-46.624v-300.448h46.624v300.448zM676.576 950.304h-67.264l46.624-4.768v-295.84h112.8v203.2l-92.16 97.408zM771.104 851.776v0zM954.496 675.872c0 14.272-11.424 24.896-23.968 24.896h-23.968v-124.672h-785.856v124.672h-23.808c-13.632 0-23.968-11.904-23.968-24.896v-374.048c0-14.272 11.424-24.896 23.968-24.896h834.88c13.632 0 23.968 11.904 23.968 24.896v374.208l-1.28-0.16zM751.776 395.552c0 16.672-13.632 30.944-29.664 30.944s-29.664-14.272-29.664-30.944 13.632-30.944 29.664-30.944c16.032 0 29.664 13.152 29.664 30.944zM870.112 395.552c0 16.672-13.632 30.944-29.664 30.944s-29.664-14.272-29.664-30.944 13.632-30.944 29.664-30.944c17.12 0 29.664 13.152 29.664 30.944z"></path>
</svg>
