<!-- Generated by IcoMoon.io -->
<svg version="1.1" xmlns="http://www.w3.org/2000/svg" width="1024" height="1024" viewBox="0 0 1024 1024">
<title></title>
<g id="icomoon-ignore">
</g>
<path fill="#000" d="M0 788.192v-554.016c0-19.968 13.312-37.664 33.28-44.32l37.664-11.040 90.88-27.68v223.776l104.192-19.968v-234.976l93.152-27.68 94.208-27.68c1.056 0 2.272 0 2.272-1.056h2.272c5.6-1.056 11.040-1.056 16.64 0h2.272c1.056 0 2.272 0 2.272 1.056l177.376 53.216c-23.296 24.352-40.992 50.944-52 79.84l-92.384-28.896v683.776l327.968-97.536v-201.696h2.272c31.008 0 60.928-5.6 89.824-16.64v251.616c0 19.968-13.312 37.664-33.28 44.288l-420.064 126.272c-4.384 1.056-8.928 2.272-13.312 2.272s-8.928-1.056-13.312-2.272l-419.904-126.272c-18.912-5.6-32.192-23.296-32.192-44.448v0zM1023.968 295.104c0 100.864-81.952 181.76-181.76 181.76-100.864 0-181.76-81.952-181.76-181.76 0-100.864 81.952-181.76 181.76-181.76 100.864 0.16 181.76 80.896 181.76 181.76v0zM927.52 264.128h-171.776v61.984h171.776v-61.984z"></path>
</svg>
