<!-- Generated by IcoMoon.io -->
<svg version="1.1" xmlns="http://www.w3.org/2000/svg" width="1024" height="1024" viewBox="0 0 1024 1024">
<title></title>
<g id="icomoon-ignore">
</g>
<path fill="#000" d="M895.904 768c0 33.984-13.536 66.432-37.504 90.56s-56.576 37.504-90.56 37.504h-511.968c-33.984 0-66.432-13.536-90.56-37.504-24-24-37.504-56.576-37.504-90.56v-63.968h-127.776v63.968c0 67.968 26.912 132.992 75.040 180.96 47.968 48.128 112.992 75.040 180.96 75.040h511.968c67.968 0 132.992-26.912 180.96-75.040 48.128-47.968 75.040-112.992 75.040-180.96v-63.968h-128.064v63.968z"></path>
<path fill="#000" d="M448.032 0.032v549.344l-128.064-128.064-90.56 90.72 237.248 237.248c12 12 28.288 18.752 45.216 18.752s33.216-6.752 45.216-18.752l237.536-237.248-90.56-90.56-128.064 128.064v-549.504h-127.904z"></path>
</svg>
