<!-- Generated by IcoMoon.io -->
<svg version="1.1" xmlns="http://www.w3.org/2000/svg" width="512" height="512" viewBox="0 0 512 512">
<title></title>
<g id="icomoon-ignore">
</g>
<path fill="#000" d="M375.76 330.976c25.136-33.968 40.224-76.704 40.224-122.944 0-114.88-93.12-208-208-208s-208 93.12-208 208c0 114.88 93.12 208 208 208 46.304 0 89.072-15.136 123.632-40.72l-0.56 0.4h-0.032c0.96 1.28 1.984 2.496 3.136 3.68l123.2 123.2c5.792 5.792 13.792 9.376 22.64 9.376 17.68 0 32-14.336 32-32 0-8.832-3.584-16.832-9.36-22.624l-123.2-123.2c-1.12-1.136-2.32-2.176-3.6-3.136l-0.080-0.064zM384.016 207.968c0 97.2-78.8 176-176 176s-176-78.8-176-176v0c0-97.2 78.8-176 176-176s176 78.8 176 176v0z"></path>
</svg>
