<!-- Generated by IcoMoon.io -->
<svg version="1.1" xmlns="http://www.w3.org/2000/svg" fill="#ffffff" width="512" height="512" viewBox="0 0 512 512">
<title></title>
<g id="icomoon-ignore">
</g>
<path d="M375.759 330.972c25.132-33.972 40.226-76.695 40.226-122.944 0-114.871-93.121-207.993-207.993-207.993s-207.993 93.121-207.993 207.993c0 114.87 93.121 207.993 207.993 207.993 46.301 0 89.068-15.129 123.628-40.713l-0.564 0.399h-0.032c0.96 1.28 1.984 2.496 3.136 3.68l123.195 123.195c5.793 5.797 13.797 9.382 22.639 9.382 17.676 0 32.005-14.329 32.005-32.005 0-8.834-3.579-16.832-9.366-22.623l-123.195-123.195c-1.121-1.135-2.322-2.183-3.597-3.14l-0.083-0.060zM384.014 207.97c0 97.198-78.795 175.994-175.994 175.994s-175.994-78.795-175.994-175.994v0c0-97.198 78.795-175.994 175.994-175.994s175.994 78.795 175.994 175.994v0z"></path>
</svg>
