<!-- Generated by IcoMoon.io -->
<svg version="1.1" xmlns="http://www.w3.org/2000/svg" width="1024" height="1024" viewBox="0 0 1024 1024">
<title></title>
<g id="icomoon-ignore">
</g>
<path fill="#000" d="M1011.168 256.928v0l-486.176-237.504c-7.072-3.456-18.688-3.456-25.792 0l-486.176 237.664c-7.072 3.456-12.96 12.832-12.96 20.672v97.12c0 7.84 6.496 14.336 14.336 14.336h44.8v593.856c0 13.12 10.848 23.968 23.968 23.968h103.456v-390.592h650.72v390.592h103.456c13.12 0 23.968-10.848 23.968-23.968v-593.856h44.928c7.84 0 14.336-6.496 14.336-14.336v-97.12c0-8-5.728-17.184-12.832-20.8zM443.232 278.208h137.696c16.576 0 30.016 13.408 30.016 30.016s-13.408 30.016-30.016 30.016h-137.696c-16.576 0-30.016-13.408-30.016-30.016s13.408-30.016 30.016-30.016zM176.768 338.080c-16.576 0-30.016-13.408-30.016-30.016s13.408-30.016 30.016-30.016h137.696c16.576 0 30.016 13.408 30.016 30.016s-13.408 30.016-30.016 30.016h-137.696zM186.72 438.816h650.72v55.040h-650.72v-55.040zM837.44 580.704h-650.72v-50.976h650.72v50.976zM847.392 338.080h-137.696c-16.576 0-30.016-13.408-30.016-30.016s13.408-30.016 30.016-30.016h137.696c16.576 0 30.016 13.408 30.016 30.016s-13.408 30.016-30.016 30.016z"></path>
<path fill="#000" d="M382.016 891.968h-152.768c-6.624 0-11.904 5.44-11.904 11.904v91.232c0 6.624 5.44 11.904 11.904 11.904h152.608c6.624 0 12.064-5.44 12.064-11.904v0-91.232c0-6.496-5.44-11.904-11.904-11.904z"></path>
<path fill="#000" d="M575.040 891.968h-152.608c-6.624 0-11.904 5.44-11.904 11.904v91.232c0 6.624 5.44 11.904 11.904 11.904h152.768c6.624 0 12.064-5.44 12.064-11.904v-91.232c-0.16-6.496-5.568-11.904-12.224-11.904z"></path>
<path fill="#000" d="M575.040 728.8h-152.608c-6.624 0-11.904 5.44-11.904 11.904v124.096c0 6.624 5.44 11.904 11.904 11.904h152.768c6.624 0 12.064-5.44 12.064-11.904v-124.096c-0.16-6.496-5.568-11.904-12.224-11.904z"></path>
<path fill="#000" d="M615.456 834.976h118.976c6.624 0 12.064-5.44 12.064-12.064v-123.968c0-6.624-5.44-11.904-12.064-11.904h-118.976c-6.624 0-12.064 5.44-12.064 11.904v124.096c0.16 6.496 5.568 11.904 12.064 11.904z"></path>
<path fill="#000" d="M382.016 876.896c6.624 0 12.064-5.44 12.064-11.904v-95.616c0-6.624-5.44-11.904-12.064-11.904h-118.976c-6.624 0-11.904 5.44-11.904 11.904v95.456c0 6.624 5.44 11.904 11.904 11.904l118.976 0.16z"></path>
<path fill="#000" d="M793.696 850.048h-178.112c-6.624 0-12.064 5.44-12.064 12.064v133.152c0 6.624 5.44 11.904 12.064 11.904h178.112c6.624 0 12.064-5.44 12.064-11.904v-133.152c-0.16-6.624-5.568-12.064-12.064-12.064z"></path>
</svg>
