<!-- Generated by IcoMoon.io -->
<svg version="1.1" xmlns="http://www.w3.org/2000/svg" width="512" height="512" viewBox="0 0 512 512">
<title></title>
<g id="icomoon-ignore">
</g>
<path fill="#000" d="M511.472 263.856h-47.68v-99.744h-48.208v-98.080h-121.92v98.608h-50.4v99.744h-19.92v-109.696h-178.432c-11.92 0-23.312 4.752-31.76 13.136-8.448 8.448-13.136 19.84-13.136 31.76v200.016h47.68c3.472 17.584 14.944 32.512 31.008 40.448s34.928 7.92 51.008 0c16.064-7.92 27.536-22.864 31.008-40.448h187.264c3.472 17.584 14.944 32.512 31.008 40.448s34.928 7.92 51.008 0c16.064-7.92 27.536-22.864 31.008-40.448h51.008l-0.528-135.728zM441.6 263.856h-77.568v-77.568h77.568v77.568zM315.824 88.208h77.568v76.432h-77.568v-76.432zM265.424 186.816h76.432v77.568h-76.432v-77.568zM44.896 176.864h40.448v68.736h-62.624v-46.032c0-5.968 2.336-11.616 6.496-15.84 4.144-4.304 9.728-6.72 15.696-6.864v0zM104.72 423.952c-9.424 0-18.416-3.776-25.056-10.416s-10.416-15.696-10.416-25.056c0-9.424 3.696-18.416 10.416-25.056 6.64-6.64 15.696-10.416 25.056-10.416 9.424 0 18.416 3.776 25.056 10.416s10.416 15.696 10.416 25.056c0 9.424-3.776 18.416-10.416 25.056-6.64 6.72-15.616 10.416-25.056 10.416zM104.72 330.928c-13.36 0-26.256 4.672-36.592 13.136s-17.36 20.288-19.92 33.424h-25.504v-30.48h23.84v-22.176h-23.84v-5.504h23.84v-22.176h-23.84v-29.344h84.8v-90.912h93.632v200.624h-39.92c-2.56-13.136-9.584-24.896-19.92-33.424-10.256-8.528-23.232-13.136-36.592-13.136v0zM404.48 423.952c-9.424 0-18.416-3.776-25.056-10.416s-10.416-15.696-10.416-25.056c0-9.424 3.776-18.416 10.416-25.056s15.696-10.416 25.056-10.416c9.424 0 18.416 3.776 25.056 10.416s10.416 15.696 10.416 25.056c0 9.424-3.776 18.416-10.416 25.056-6.64 6.72-15.616 10.416-25.056 10.416zM489.824 377.408h-28.816c-3.472-17.584-14.944-32.512-31.008-40.448s-34.928-7.92-51.008 0c-16.064 7.92-27.536 22.864-31.008 40.448h-124.64v-91.376h265.952l0.528 91.376z"></path>
</svg>
