<!-- Generated by IcoMoon.io -->
<svg version="1.1" xmlns="http://www.w3.org/2000/svg" width="512" height="512" viewBox="0 0 512 512">
<title></title>
<g id="icomoon-ignore">
</g>
<path fill="#000" d="M507.024 88.16c-3.168-3.168-7.456-4.896-11.904-4.896v0h-260.352c-14.688 0-28.768 5.728-39.232 16.032-10.464 10.24-16.496 24.24-16.784 38.928h-93.136c-18 0-34.56 9.568-43.6 25.152l-42.016 72.208v125.2c0 4.448 1.808 8.736 4.896 11.904 3.168 3.168 7.456 4.896 11.888 4.896h28.384c4.976 19.648 18.528 35.984 36.816 44.64s39.52 8.656 57.904 0c18.288-8.656 31.856-24.992 36.816-44.64h152.608c4.976 19.648 18.528 35.984 36.816 44.64s39.52 8.656 57.904 0c18.288-8.656 31.856-24.992 36.816-44.64h34.336c4.448 0 8.736-1.808 11.904-4.896 3.168-3.168 4.896-7.456 4.896-11.904v-260.736c0-4.512-1.808-8.816-4.976-11.904zM135.232 385.12c-6.4 6.4-15.136 10.016-24.24 10.096h-0.080c-9.104 0-17.84-3.616-24.32-10.096s-10.096-15.216-10.096-24.32c0-9.104 3.616-17.84 10.096-24.32s15.216-10.016 24.32-10.016c9.104 0 17.84 3.616 24.32 10.096 6.4 6.48 10.016 15.216 10.016 24.32s-3.616 17.84-10.016 24.24zM178.752 344h-2.032c-4.976-19.648-18.528-35.984-36.816-44.64s-39.52-8.656-57.904 0c-18.288 8.656-31.84 24.992-36.816 44.64h-11.52v-86.352h145.088v86.352zM178.752 224.224h-133.12l25.376-43.968c3.088-5.12 8.656-8.288 14.608-8.208h93.056v52.176zM419.312 385.12c-6.4 6.4-15.136 10.016-24.24 10.096h-0.080c-9.104 0-17.84-3.616-24.32-10.096s-10.096-15.216-10.096-24.32c0-9.104 3.616-17.84 10.096-24.32s15.216-10.016 24.32-10.016c9.104 0 17.84 3.616 24.32 10.096s10.016 15.216 10.016 24.32c0 9.104-3.616 17.84-10.016 24.24zM478.336 344h-17.536c-4.976-19.648-18.528-35.984-36.816-44.64s-39.52-8.656-57.904 0c-18.288 8.656-31.856 24.992-36.816 44.64h-116.848v-204.72c0-5.952 2.336-11.664 6.544-15.888s9.936-6.544 15.888-6.544h243.488v227.152z"></path>
<path fill="#000" d="M235.072 216.768c-3.008 5.2-3.008 11.6 0 16.784s8.576 8.432 14.528 8.432v0h175.584c6.016 0 11.52-3.232 14.528-8.432s3.008-11.6 0-16.784c-3.008-5.2-8.576-8.432-14.528-8.432h-175.504c-6.016 0.080-11.6 3.232-14.608 8.432z"></path>
<path fill="#000" d="M307.504 264.416h-57.904c-6.016 0-11.52 3.232-14.528 8.432s-3.008 11.6 0 16.784c3.008 5.2 8.576 8.432 14.528 8.432h57.904c6.016 0 11.52-3.232 14.528-8.432s3.008-11.6 0-16.784c-2.928-5.2-8.512-8.432-14.528-8.432z"></path>
<path fill="#000" d="M235.072 177.536c3.008 5.2 8.576 8.432 14.528 8.432v0h119.568c6.016 0 11.52-3.232 14.528-8.432s3.008-11.6 0-16.784c-3.008-5.2-8.576-8.432-14.528-8.432h-119.488c-6.016 0-11.52 3.232-14.528 8.432-3.088 5.2-3.088 11.6-0.080 16.784z"></path>
</svg>
