<!-- Generated by IcoMoon.io -->
<svg version="1.1" xmlns="http://www.w3.org/2000/svg" width="512" height="512" viewBox="0 0 512 512">
<title></title>
<g id="icomoon-ignore">
</g>
<path fill="#000" d="M318.56 234.080h147.904v100.864h-147.904v-100.864z"></path>
<path fill="#000" d="M509.712 367.664c-3.040-5.248-8.672-8.528-14.768-8.528h-377.024v-307.904c0-4.496-1.824-8.832-5.024-12.096-3.2-3.2-7.536-5.024-12.096-5.024h-83.728c-6.096 0-11.728 3.28-14.768 8.528s-3.040 11.792 0 17.056c3.040 5.248 8.672 8.528 14.768 8.528h66.688v307.904c0 4.496 1.824 8.832 5.024 12.096 3.2 3.2 7.536 5.024 12.096 5.024h88.608c-14.24 2.288-26.336 11.648-32.128 24.816-5.856 13.168-4.56 28.4 3.28 40.496s21.312 19.328 35.696 19.328c14.384 0 27.856-7.312 35.696-19.328 7.84-12.096 9.056-27.328 3.28-40.496-5.856-13.168-17.888-22.528-32.128-24.816h208.112c-14.24 2.288-26.336 11.648-32.128 24.816-5.856 13.168-4.56 28.4 3.28 40.496s21.312 19.328 35.696 19.328c14.384 0 27.856-7.312 35.696-19.328 7.84-12.096 9.056-27.328 3.28-40.496-5.856-13.168-17.888-22.528-32.128-24.816h69.952c6.096 0 11.728-3.28 14.768-8.528s3.040-11.728 0-17.056z"></path>
<path fill="#000" d="M147.904 234.080h147.904v100.864h-147.904v-100.864z"></path>
<path fill="#000" d="M233.232 110.384h147.904v100.864h-147.904v-100.864z"></path>
</svg>
