<!-- Generated by IcoMoon.io -->
<svg version="1.1" xmlns="http://www.w3.org/2000/svg" width="512" height="512" viewBox="0 0 512 512">
<title></title>
<g id="icomoon-ignore">
</g>
<path d="M409.6 0c56.464 0 102.4 45.936 102.4 102.4v102.4h-68.267v-102.4c0-18.822-15.312-34.133-34.133-34.133h-68.267c-18.822 0-34.133 15.312-34.133 34.133v102.4h8.534c14.080 0 25.6 11.52 25.6 25.6v256c0 14.080-11.52 25.6-25.6 25.6h-290.134c-14.080 0-25.6-11.52-25.6-25.6v-256c0-14.080 11.52-25.6 25.6-25.6h213.333v-102.4c0-56.464 45.936-102.4 102.4-102.4h68.267z"></path>
</svg>
