<!-- Generated by IcoMoon.io -->
<svg version="1.1" xmlns="http://www.w3.org/2000/svg" width="512" height="512" viewBox="0 0 512 512">
<title></title>
<g id="icomoon-ignore">
</g>
<path fill="#000" d="M83.2 235.952l11.856 171.968 160.928 82.544 160.928-82.544 11.856-171.968-172.784 71.872z"></path>
<path fill="#000" d="M250.064 294.352c-12.368-83.952 48.688-163.152 144.64-187.76v0c3.408 9.488 6.816 19.040 10.224 28.528 27.040-27.568 54.096-55.2 81.056-82.768-40.672-10.224-81.28-20.528-121.888-30.816 3.408 9.488 6.816 19.040 10.224 28.528-122.256 31.408-181.6 148.048-124.256 244.288z"></path>
<path fill="#000" d="M433.376 126c-11.552 11.776-23.12 23.568-34.672 35.344-4.592-12.816-9.264-25.632-13.856-38.448-41.488 13.712-69.792 33.712-93.136 65.728 45.648 15.776 91.36 31.568 137.072 47.424v0c27.712-28.976 55.504-58.016 83.216-86.992-26.224-7.776-52.384-15.408-78.608-23.040z"></path>
<path fill="#000" d="M215.392 190.24v0c2.368-14.224 6.592-27.856 12.752-41.264-17.488-17.12-34.976-34.16-52.464-51.28-58.528 17.040-117.152 34.16-175.68 51.28 27.712 28.976 55.504 58.016 83.216 86.992 44.016-15.184 88.096-30.448 132.192-45.712z"></path>
</svg>
