<!-- Generated by IcoMoon.io -->
<svg version="1.1" xmlns="http://www.w3.org/2000/svg" width="1024" height="1024" viewBox="0 0 1024 1024">
<title></title>
<g id="icomoon-ignore">
</g>
<path fill="#000" d="M989.184 578.432v0l-78.368-144.352c-6.624-11.904-20.352-22.304-33.76-25.312l-347.648-75.36c0 0-14.624-3.328-27.264-0.896l-355.168 76.256c-13.408 2.848-27.264 13.248-33.76 25.312l-78.368 144.352c-5.44 9.952-5.568 20.64-0.288 29.536 4.96 8.576 14.464 13.568 25.152 13.568l56.8-5.44v246.528c0 16.736 11.456 32.864 27.264 38.272l348.704 120.992c22.304 5.28 42.336-1.216 42.336-1.216l345.216-119.808c15.808-5.44 27.264-21.536 27.264-38.272v-246.368l53.344 5.12 3.456 0.16c10.688 0 20.192-5.12 25.152-13.568 5.44-8.896 5.28-19.584-0.16-29.536zM373.6 545.12c-0.608 0.768-2.4 1.792-2.72 1.952l-283.296 27.136 64.48-118.752c0.768-1.056 3.168-3.008 4.224-3.328l311.008-67.648-93.728 160.64zM862.752 859.616v0l-328.64 114.080v-539.008l78.048 133.504c7.232 12.352 22.304 22.016 36.608 23.36l213.984 20.48v247.584zM653.6 547.232c-0.896-0.288-2.56-1.344-2.848-1.664l-93.888-160.8 310.56 67.36c1.344 0.448 3.776 2.272 4.384 3.168l64.64 119.040-282.848-27.136z"></path>
<path fill="#000" d="M575.072 918.848l255.104-88.448v-67.968l-255.104 88.448z"></path>
<path fill="#000" d="M638.208 785.184l191.968-66.752v-50.624l-191.968 66.592z"></path>
<path fill="#000" d="M366.528 185.728h71.872v84.544c0 10.688 8.736 19.424 19.424 19.424h108.032c10.688 0 19.424-8.736 19.424-19.424v-84.544h71.872c10.688 0 13.856-6.624 6.944-14.912v0l-57.248-67.52c-6.944-8.128-18.24-21.536-25.152-29.696l-57.248-67.52c-6.944-8.128-18.24-8.128-25.152 0l-57.248 67.52c-6.944 8.128-18.24 21.696-25.152 29.696l-57.248 67.52c-6.944 8.128-3.776 14.912 6.944 14.912z"></path>
</svg>
