<!-- Generated by IcoMoon.io -->
<svg version="1.1" xmlns="http://www.w3.org/2000/svg" width="1024" height="1024" viewBox="0 0 1024 1024">
<title></title>
<g id="icomoon-ignore">
</g>
<path fill="#000" d="M662.848 225.856c83.296 83.296 83.296 218.368 0 301.696s-218.368 83.296-301.696 0c-83.296-83.296-83.296-218.368 0-301.696s218.368-83.296 301.696 0z"></path>
<path fill="#000" d="M512 0.032c-282.496 0-511.968 228.864-511.968 511.968 0 282.496 228.864 511.968 511.968 511.968s511.968-228.864 511.968-511.968c0-282.496-229.472-511.968-511.968-511.968zM856.832 830.624v0-15.552c0-99.488-80.928-180.704-180.704-180.704h-332.192c-99.488 0-180.704 80.928-180.704 180.704v12.64c-75.424-83.2-121.76-193.824-121.76-315.712 0-259.2 210.432-469.632 469.632-469.632s469.92 210.432 469.92 469.632c0.608 123.264-46.176 234.816-124.192 318.624z"></path>
</svg>
