<!-- Generated by IcoMoon.io -->
<svg version="1.1" xmlns="http://www.w3.org/2000/svg" width="1024" height="1024" viewBox="0 0 1024 1024">
<title></title>
<g id="icomoon-ignore">
</g>
<path fill="#000" d="M966.176 782.016c-90.848-48.448-181.696-97.184-271.808-146.848-19.328-10.56-36.064-16.896-54.624-1.216-2.112 1.824-4.992 2.56-7.552 3.456-89.504 37.44-177.024 33.664-262.912-11.328-5.44-2.88-9.824-6.656-17.216-2.56-100.512 54.624-201.472 108.224-301.984 163.136-30.624 16.736-47.84 43.776-49.216 79.072-1.216 29.888-0.896 59.616-0.448 89.504 0.768 41.952 28.224 68.224 70.336 68.224h883.776c41.344 0 69.12-27.456 69.408-69.12 0-25.216-0.448-50.112 0-75.296 0.768-44.512-18.56-76.064-57.792-97.056z"></path>
<path fill="#000" d="M504.8 602.56v0c74.56-0.896 132.064-26.112 180.064-72.896 117.408-114.4 124.192-313.472 15.712-439.648-102.016-118.784-272.864-119.52-375.936-1.504-94.784 108.672-104.736 278.144-21.888 397.536 50.56 72.576 119.232 113.632 202.080 116.512z"></path>
</svg>
