<?xml version="1.0" encoding="utf-8"?>
<!-- Generator: Adobe Illustrator 24.0.2, SVG Export Plug-In . SVG Version: 6.00 Build 0)  -->
<svg version="1.1" id="Capa_1" xmlns="http://www.w3.org/2000/svg" xmlns:xlink="http://www.w3.org/1999/xlink" x="0px" y="0px"
	 viewBox="0 0 2511.42 766.62" style="enable-background:new 0 0 2511.42 766.62;" xml:space="preserve">
<style type="text/css">
	.st0{fill:#020203;}
</style>
<g>
	<path class="st0" d="M2117.3,445.75l53.89,87.25h-80.43l-44.48-74.85h-126.15v74.85h-73.15V233.62h214.29
		c68,0,114.62,45.34,114.62,112.06C2175.89,391.87,2153.65,428.22,2117.3,445.75z M1920.13,385.01h132.5
		c20.97,0,50.12,0,50.12-39.38c0-38.87-29.15-38.87-50.12-38.87h-132.5V385.01z"/>
	<polygon class="st0" points="1472.7,306.75 1472.7,233.62 1177.15,233.62 1177.15,533.01 1472.7,533.01 1472.7,459.87 
		1250.3,459.87 1250.3,419.88 1472.7,419.88 1472.7,415.39 1472.7,351.23 1472.7,346.74 1250.3,346.74 1250.3,306.75 	"/>
	<polygon class="st0" points="1137.17,459.86 1137.17,533.01 841.61,533.01 841.61,233.62 914.76,233.62 914.76,459.86 	"/>
	<path class="st0" d="M1584.6,419.88H1807v-4.49v-64.16v-4.49h-156.83c-16.72,0-32.07,9.28-39.84,24.09L1584.6,419.88z"/>
	<polygon class="st0" points="1511.46,233.62 1511.46,533.01 1584.6,533.01 1584.6,459.87 1584.6,451.96 1584.6,419.88 
		1584.6,346.74 1584.6,306.75 1624.58,306.75 1807,306.75 1807,233.62 	"/>
	<polygon class="st0" points="2308.95,419.88 2511.42,419.88 2511.42,415.39 2511.42,351.23 2511.42,346.74 2308.95,346.74 	"/>
	<polygon class="st0" points="2215.87,233.62 2215.87,533.01 2511.42,533.01 2511.42,459.87 2289.02,459.87 2289.02,451.96 
		2289.02,419.88 2289.02,346.74 2289.02,306.75 2329,306.75 2511.42,306.75 2511.42,233.62 	"/>
	<path class="st0" d="M517.4,318.55l-79.5,41.16l-15.43-7.96l-8.14-4.22c-10.08-5.21-21.4-7.95-32.74-7.95
		c-11.37,0-22.69,2.74-32.77,7.98l-23.52,12.15l-79.53-41.16l-0.02-0.02l121.45-62.86c4.5-2.33,9.45-3.48,14.39-3.48
		c4.93,0,9.87,1.15,14.37,3.48h0.02L517.4,318.55z"/>
	<path class="st0" d="M641.05,257.57l-54.62,28.27c-15.61,8.07-34.17,8.07-49.76,0l-122.31-63.13h-0.02
		c-1.89-0.97-3.8-1.87-5.76-2.67c-8.53-3.48-17.75-5.3-26.98-5.3c-9.25,0-18.45,1.82-26.98,5.3c-1.96,0.81-3.9,1.68-5.76,2.67h-0.02
		l-121.65,62.97c-15.61,8.07-34.15,8.07-49.76,0l-54.65-28.29L367.2,130.85c4.5-2.33,9.45-3.5,14.39-3.5c4.93,0,9.87,1.18,14.37,3.5
		h0.02L641.05,257.57z"/>
	<path class="st0" d="M763.09,193.62l-54.59,28.23c-15.59,8.07-34.15,8.07-49.74,0l-114.71-59.37c-0.62-0.32-1.27-0.65-1.89-0.95
		c-0.09-0.04-0.18-0.09-0.28-0.14L414.33,95.37c-1.89-0.99-3.8-1.87-5.76-2.67c-8.53-3.48-17.75-5.3-26.98-5.3
		c-9.25,0-18.45,1.82-26.98,5.3c-1.96,0.78-3.9,1.68-5.76,2.67h-0.02l-17.36,8.99l-110.17,57.02c-0.09,0.04-0.18,0.09-0.28,0.14
		c-0.62,0.3-1.27,0.62-1.89,0.95l-114.71,59.37c-15.59,8.07-34.15,8.07-49.74,0L4.73,196.02L0,193.57l16.92-8.76L238.65,70.05
		c0.18-0.09,0.37-0.18,0.55-0.28l128-66.27c4.5-2.35,9.45-3.5,14.39-3.5c4.93,0,9.87,1.15,14.37,3.5l128.57,66.55l221.73,114.76
		L763.09,193.62z"/>
	<path class="st0" d="M239,444.21l57.06,29.53l71.49,37.01c4.5,2.35,9.45,3.5,14.39,3.5c4.93,0,9.89-1.15,14.39-3.5l71.49-37.01
		l57.06-29.53L746.6,329.45l16.92-8.76l-4.73-2.44l-49.94-25.83c-15.59-8.07-34.15-8.07-49.74,0L544.41,351.8
		c-0.62,0.32-1.27,0.65-1.89,0.95c-0.09,0.05-0.18,0.09-0.28,0.14L414.68,418.9c-1.89,0.99-3.8,1.87-5.76,2.67
		c-8.53,3.48-17.75,5.3-26.98,5.3c-9.22,0-18.45-1.82-26.98-5.3c-1.96-0.81-3.87-1.68-5.76-2.67l-127.56-66.02
		c-0.09-0.05-0.18-0.09-0.28-0.14c-0.62-0.3-1.27-0.62-1.89-0.95l-114.71-59.37c-15.59-8.07-34.15-8.07-49.74,0L5.08,318.25
		l-4.73,2.44l16.92,8.76L239,444.21z"/>
	<path class="st0" d="M708.86,418.6c-15.59-8.07-34.15-8.07-49.74,0l-114.71,59.37c-0.62,0.32-1.27,0.65-1.89,0.95
		c-0.09,0.04-0.18,0.09-0.28,0.14l-127.56,66.02c-1.89,0.99-3.8,1.87-5.76,2.67c-8.53,3.48-17.75,5.3-26.98,5.3
		c-9.22,0-18.45-1.82-26.98-5.3c-1.96-0.81-3.87-1.68-5.76-2.67l-127.56-66.02c-0.09-0.05-0.18-0.09-0.28-0.14
		c-0.62-0.3-1.27-0.62-1.89-0.95L104.76,418.6c-15.59-8.07-34.15-8.07-49.74,0L5.08,444.43l-4.73,2.44l16.92,8.76L239,570.39
		l57.06,29.53l71.49,37.01c4.5,2.35,9.45,3.5,14.39,3.5c4.93,0,9.89-1.15,14.39-3.5l71.49-37.01l57.06-29.53L746.6,455.63
		l16.92-8.76l-4.73-2.44L708.86,418.6z"/>
	<path class="st0" d="M708.86,544.78c-15.59-8.07-34.15-8.07-49.74,0l-114.71,59.37c-0.62,0.32-1.27,0.65-1.89,0.95
		c-0.09,0.05-0.18,0.09-0.28,0.14l-127.56,66.02c-1.89,0.99-3.8,1.87-5.76,2.67c-8.53,3.48-17.75,5.3-26.98,5.3
		c-9.22,0-18.45-1.82-26.98-5.3c-1.96-0.81-3.87-1.68-5.76-2.67l-127.56-66.02c-0.09-0.05-0.18-0.09-0.28-0.14
		c-0.62-0.3-1.27-0.62-1.89-0.95l-114.71-59.37c-15.59-8.07-34.15-8.07-49.74,0L5.08,570.61l-4.73,2.44l16.92,8.76L239,696.57
		l57.06,29.53l71.49,37.01c4.5,2.35,9.45,3.5,14.39,3.5c4.93,0,9.89-1.15,14.39-3.5l71.49-37.01l57.06-29.53L746.6,581.81
		l16.92-8.76l-4.73-2.44L708.86,544.78z"/>
</g>
</svg>
