<!-- Generated by IcoMoon.io -->
<svg version="1.1" xmlns="http://www.w3.org/2000/svg" width="520" height="512" viewBox="0 0 520 512">
<title></title>
<g id="icomoon-ignore">
</g>
<path fill="#020203" d="M397.267 275.442l16.781 27.171h-25.046l-13.852-23.308h-39.284v23.308h-22.779v-93.229h66.731c21.175 0 35.694 14.119 35.694 34.897 0 14.385-6.926 25.704-18.245 31.163zM335.868 256.528h41.262c6.53 0 15.608 0 15.608-12.263 0-12.105-9.078-12.105-15.608-12.105h-41.262v24.367z"></path>
<path fill="#020203" d="M196.533 232.158v-22.773h-92.037v93.229h92.037v-22.773h-69.257v-12.457h69.257v-22.773h-69.257v-12.453z"></path>
<path fill="#020203" d="M92.046 279.837v22.776h-92.040v-93.229h22.779v70.452z"></path>
<path fill="#020203" d="M231.379 267.387h69.257v-22.775h-48.837c-5.208 0-9.988 2.89-12.406 7.502l-8.013 15.275z"></path>
<path fill="#020203" d="M208.603 209.386v93.229h22.775v-70.456h69.257v-22.773z"></path>
<path fill="#020203" d="M456.945 267.387h63.053v-22.775h-63.053z"></path>
<path fill="#020203" d="M427.959 209.386v93.229h92.040v-22.773h-69.26v-47.682h69.26v-22.773z"></path>
</svg>
