<?xml version="1.0" encoding="UTF-8" standalone="no" ?>
<!DOCTYPE svg PUBLIC "-//W3C//DTD SVG 1.1//EN" "http://www.w3.org/Graphics/SVG/1.1/DTD/svg11.dtd">
<svg xmlns="http://www.w3.org/2000/svg" xmlns:xlink="http://www.w3.org/1999/xlink" version="1.1" width="1080" height="1080" viewBox="0 0 1080 1080" xml:space="preserve">
<desc>Created with Fabric.js 4.2.0</desc>
<defs>
</defs>
<g transform="matrix(1 0 0 1 540 540)" id="336c8106-b307-40d6-bde4-32441cadb21c"  >
</g>
<g transform="matrix(1 0 0 1 540 540)" id="2f6fcd52-5772-43d1-a7db-1b473ff250e5"  >
<rect style="stroke: none; stroke-width: 1; stroke-dasharray: none; stroke-linecap: butt; stroke-dashoffset: 0; stroke-linejoin: miter; stroke-miterlimit: 4; fill: rgb(255,255,255); fill-rule: nonzero; opacity: 1;" vector-effect="non-scaling-stroke"  x="-540" y="-540" rx="0" ry="0" width="1080" height="1080" />
</g>
<g transform="matrix(0.26 0 0 0.26 540 540)"  >
<g style="" vector-effect="non-scaling-stroke"   >
		<g transform="matrix(1 0 0 1 334.92 0)"  >
<path style="stroke: none; stroke-width: 1; stroke-dasharray: none; stroke-linecap: butt; stroke-dashoffset: 0; stroke-linejoin: miter; stroke-miterlimit: 4; fill: rgb(2,2,3); fill-rule: nonzero; opacity: 1;" vector-effect="non-scaling-stroke"  transform=" translate(-2011.43, -383.31)" d="M 2117.3 445.75 L 2171.19 533 L 2090.76 533 L 2046.2800000000002 458.15 L 1920.13 458.15 L 1920.13 533 L 1846.98 533 L 1846.98 233.62 L 2061.27 233.62 C 2129.27 233.62 2175.89 278.96000000000004 2175.89 345.68 C 2175.89 391.87 2153.65 428.22 2117.3 445.75 z M 1920.13 385.01 L 2052.63 385.01 C 2073.6 385.01 2102.75 385.01 2102.75 345.63 C 2102.75 306.76 2073.6 306.76 2052.63 306.76 L 1920.13 306.76 L 1920.13 385.01 z" stroke-linecap="round" />
</g>
		<g transform="matrix(1 0 0 1 -351.59 0)"  >
<polygon style="stroke: none; stroke-width: 1; stroke-dasharray: none; stroke-linecap: butt; stroke-dashoffset: 0; stroke-linejoin: miter; stroke-miterlimit: 4; fill: rgb(2,2,3); fill-rule: nonzero; opacity: 1;" vector-effect="non-scaling-stroke"  points="147.77,-76.56 147.77,-149.69 -147.78,-149.69 -147.78,149.69 147.77,149.69 147.77,76.56 -74.63,76.56 -74.63,36.56 147.77,36.56 147.77,32.07 147.77,-32.08 147.77,-36.57 -74.63,-36.57 -74.63,-76.56 " />
</g>
		<g transform="matrix(1 0 0 1 -687.13 0)"  >
<polygon style="stroke: none; stroke-width: 1; stroke-dasharray: none; stroke-linecap: butt; stroke-dashoffset: 0; stroke-linejoin: miter; stroke-miterlimit: 4; fill: rgb(2,2,3); fill-rule: nonzero; opacity: 1;" vector-effect="non-scaling-stroke"  points="147.78,76.55 147.78,149.69 -147.78,149.69 -147.78,-149.69 -74.63,-149.69 -74.63,76.55 " />
</g>
		<g transform="matrix(1 0 0 1 19.28 0)"  >
<path style="stroke: none; stroke-width: 1; stroke-dasharray: none; stroke-linecap: butt; stroke-dashoffset: 0; stroke-linejoin: miter; stroke-miterlimit: 4; fill: rgb(2,2,3); fill-rule: nonzero; opacity: 1;" vector-effect="non-scaling-stroke"  transform=" translate(-1695.8, -383.31)" d="M 1584.6 419.88 L 1807 419.88 L 1807 415.39 L 1807 351.23 L 1807 346.74 L 1650.17 346.74 C 1633.45 346.74 1618.1000000000001 356.02 1610.3300000000002 370.83 L 1584.6 419.88 z" stroke-linecap="round" />
</g>
		<g transform="matrix(1 0 0 1 -17.29 0)"  >
<polygon style="stroke: none; stroke-width: 1; stroke-dasharray: none; stroke-linecap: butt; stroke-dashoffset: 0; stroke-linejoin: miter; stroke-miterlimit: 4; fill: rgb(2,2,3); fill-rule: nonzero; opacity: 1;" vector-effect="non-scaling-stroke"  points="-147.77,-149.69 -147.77,149.69 -74.63,149.69 -74.63,76.56 -74.63,68.64 -74.63,36.56 -74.63,-36.57 -74.63,-76.56 -34.65,-76.56 147.77,-76.56 147.77,-149.69 " />
</g>
		<g transform="matrix(1 0 0 1 733.67 0)"  >
<polygon style="stroke: none; stroke-width: 1; stroke-dasharray: none; stroke-linecap: butt; stroke-dashoffset: 0; stroke-linejoin: miter; stroke-miterlimit: 4; fill: rgb(2,2,3); fill-rule: nonzero; opacity: 1;" vector-effect="non-scaling-stroke"  points="-101.24,36.57 101.24,36.57 101.24,32.08 101.24,-32.08 101.24,-36.57 -101.24,-36.57 " />
</g>
		<g transform="matrix(1 0 0 1 687.13 0)"  >
<polygon style="stroke: none; stroke-width: 1; stroke-dasharray: none; stroke-linecap: butt; stroke-dashoffset: 0; stroke-linejoin: miter; stroke-miterlimit: 4; fill: rgb(2,2,3); fill-rule: nonzero; opacity: 1;" vector-effect="non-scaling-stroke"  points="-147.78,-149.69 -147.78,149.69 147.78,149.69 147.78,76.56 -74.63,76.56 -74.63,68.64 -74.63,36.56 -74.63,-36.57 -74.63,-76.56 -34.64,-76.56 147.78,-76.56 147.78,-149.69 " />
</g>
</g>
</g>
</svg>